<?xml version="1.0" encoding="UTF-8" standalone="no"?>
<svg width="512px" height="512px" viewBox="0 0 512 512" version="1.1" xmlns="http://www.w3.org/2000/svg" xmlns:xlink="http://www.w3.org/1999/xlink" xmlns:sketch="http://www.bohemiancoding.com/sketch/ns">
    <!-- Generator: Sketch 3.3 (11970) - http://www.bohemiancoding.com/sketch -->
    <title>Icon</title>
    <desc>Created with Sketch.</desc>
    <defs></defs>
    <g id="Page-1" stroke="none" stroke-width="1" fill="none" fill-rule="evenodd" sketch:type="MSPage">
        <rect id="Background" fill="#39CCCC" sketch:type="MSShapeGroup" x="0" y="0" width="512" height="512"></rect>
        <circle id="Circle" fill="#FFFFFF" sketch:type="MSShapeGroup" cx="256" cy="256" r="181"></circle>
        <g id="Translate" sketch:type="MSLayerGroup" transform="translate(150.000000, 148.000000)" fill="#000000" opacity="0.149999991">
            <path d="M68.3824,89.1816 C59.5408,96.4872 47.932,103.5864 32.6176,109.6608 L29.0848,100.7496 C42.7984,95.3112 53.2216,89.028 61.1896,82.6008 C51.4912,72.7512 46.3024,62.9568 43.5544,55.152 L53.7976,55.152 C56.4112,61.3176 60.8728,68.6928 68.3464,76.1904 C81.628,62.8248 85.3336,49.8408 86.3632,43.4376 L26.056,43.4376 L26.056,33.3192 L62.5312,33.3192 L62.5312,21.8712 L72.6496,21.8712 L72.6496,33.3192 L109.1248,33.3192 L109.1248,43.4376 L96.0544,43.4376 C95.1352,50.892 91.2976,66.6912 75.5608,82.6464 C77.2648,84.012 79.1056,85.3704 81.0424,86.7168 C82.9744,84.1368 86.0296,82.4424 89.5,82.4424 L135.4768,82.4424 C136.3432,78.0936 136.816,73.6008 136.816,68.9952 C136.816,31.2792 106.24,0.7008 68.5216,0.7008 C30.8056,0.7008 0.2272,31.2792 0.2272,68.9952 C0.2272,106.7112 30.8056,137.2872 68.5216,137.2872 C72.0616,137.2872 75.5104,136.9368 78.9064,136.4208 L78.9064,96.8448 C75.028,94.3392 71.5192,91.7736 68.3824,89.1816 L68.3824,89.1816 Z" id="Shape" sketch:type="MSShapeGroup"></path>
            <path d="M148.9624,122.2224 L136.0576,157.7424 L161.8696,157.7424 L149.1784,122.2224 L148.9624,122.2224 Z" id="Shape" sketch:type="MSShapeGroup"></path>
            <path d="M202.1848,89.0976 L95.1496,89.0976 C89.8552,89.0976 85.564,93.3888 85.564,98.6832 L85.564,205.7184 C85.564,211.0104 89.8552,215.304 95.1496,215.304 L202.1848,215.304 C207.4768,215.304 211.768,211.0104 211.768,205.7184 L211.768,98.6808 C211.768,93.3888 207.4768,89.0976 202.1848,89.0976 L202.1848,89.0976 Z M173.3848,189.204 L165.0736,166.272 L132.8584,166.272 L124.3216,189.204 L113.9776,189.204 L143.632,113.0544 L154.8304,113.0544 L184.5856,189.204 L173.3848,189.204 L173.3848,189.204 Z" id="Shape" sketch:type="MSShapeGroup"></path>
        </g>
    </g>
</svg>